<?xml version="1.0" encoding="utf-8"?>
<!DOCTYPE svg PUBLIC "-//W3C//DTD SVG 1.1//EN"
  "http://www.w3.org/Graphics/SVG/1.1/DTD/svg11.dtd">
<svg xmlns="http://www.w3.org/2000/svg"
     xmlns:xlink="http://www.w3.org/1999/xlink"
     width="1000" height="1000" viewBox="-100 -100 2000 2000">

<g id="harriss">
  <path d="M 172.06388358538038,301.95106650887635 A 121.6675386995704, 121.6675386995704 0 0, 1 172.06388358538038, 129.88718289066188" fill="none" stroke="black" stroke-width="4"/>
  <path d="M 172.06388358538038,129.88718289066188 A 91.84410767461318, 91.84410767461318 0 0, 1 301.951066500828, 129.88718289066188" fill="none" stroke="black" stroke-width="4"/>
  <path d="M 301.951066500828,129.88718289066188 A 69.3310656622638, 69.3310656622638 0 0, 1 301.951066500828, 227.93611640854414" fill="none" stroke="black" stroke-width="4"/>
  <path d="M 301.951066500828,227.93611640854414 A 52.33647304729373, 52.33647304729373 0 0, 1 227.93611638637185, 227.93611640854414" fill="none" stroke="black" stroke-width="4"/>
  <path d="M 227.93611638637185,227.93611640854414 A 39.5076346348585, 39.5076346348585 0 0, 1 227.93611638637188, 172.06388359689086" fill="none" stroke="black" stroke-width="4"/>
  <path d="M 227.93611638637188,172.06388359689086 A 29.823431033096366, 29.823431033096366 0 0, 1 270.11281710064924, 172.0638835968909" fill="none" stroke="black" stroke-width="4"/>
  <path d="M 270.11281710064924,172.0638835968909 A 22.513042018493394, 22.513042018493394 0 0, 1 270.11281710064924, 203.9021330031452" fill="none" stroke="black" stroke-width="4"/>
  <path d="M 270.11281710064924,203.9021330031452 A 16.994592619608042, 16.994592619608042 0 0, 1 246.07883369066406, 203.9021330031452" fill="none" stroke="black" stroke-width="4"/>
  <path d="M 246.07883369066406,203.9021330031452 A 12.82883841593634, 12.82883841593634 0 0, 1 246.07883369066406, 185.759415695391" fill="none" stroke="black" stroke-width="4"/>
  <path d="M 246.07883369066406,203.9021330031452 A 9.684203602557055, 9.684203602557055 0 0, 1 246.07883369066406, 217.5976651016453" fill="none" stroke="black" stroke-width="4"/>
  <path d="M 270.11281710064924,203.9021330031452 A 12.828838413488302, 12.828838413488302 0 0, 1 288.2555344049414, 203.9021330031452" fill="none" stroke="black" stroke-width="4"/>
  <path d="M 288.2555344049414,203.9021330031452 A 9.684203602557055, 9.684203602557055 0 0, 1 288.2555344049414, 217.5976651016453" fill="none" stroke="black" stroke-width="4"/>
  <path d="M 270.11281710064924,172.0638835968909 A 16.994592616365082, 16.994592616365082 0 0, 1 270.11281710064924, 148.02990019149195" fill="none" stroke="black" stroke-width="4"/>
  <path d="M 270.11281710064924,148.02990019149195 A 12.828838413488302, 12.828838413488302 0 0, 1 288.2555344049414, 148.02990019149195" fill="none" stroke="black" stroke-width="4"/>
  <path d="M 288.2555344049414,148.02990019149195 A 9.684203602557076, 9.684203602557076 0 0, 1 288.2555344049414, 161.72543228999209" fill="none" stroke="black" stroke-width="4"/>
  <path d="M 288.2555344049414,148.02990019149195 A 7.310389013808026, 7.310389013808026 0 0, 1 288.2555344049414, 137.69144888459311" fill="none" stroke="black" stroke-width="4"/>
  <path d="M 227.93611638637188,172.06388359689086 A 22.51304201419736, 22.51304201419736 0 0, 1 196.09786698619308, 172.0638835968909" fill="none" stroke="black" stroke-width="4"/>
  <path d="M 196.09786698619308,172.0638835968909 A 16.994592616365082, 16.994592616365082 0 0, 1 196.09786698619308, 148.02990019149195" fill="none" stroke="black" stroke-width="4"/>
  <path d="M 196.09786698619308,148.02990019149195 A 12.828838413488302, 12.828838413488302 0 0, 1 214.24058429048523, 148.02990019149195" fill="none" stroke="black" stroke-width="4"/>
  <path d="M 214.24058429048523,148.02990019149195 A 9.684203602557076, 9.684203602557076 0 0, 1 214.24058429048523, 161.72543228999209" fill="none" stroke="black" stroke-width="4"/>
  <path d="M 214.24058429048523,148.02990019149195 A 7.310389013808026, 7.310389013808026 0 0, 1 214.24058429048523, 137.69144888459311" fill="none" stroke="black" stroke-width="4"/>
  <path d="M 196.09786698619308,148.02990019149195 A 9.684203600709079, 9.684203600709079 0 0, 1 182.4023348903064, 148.02990019149195" fill="none" stroke="black" stroke-width="4"/>
  <path d="M 182.4023348903064,148.02990019149195 A 7.310389013808026, 7.310389013808026 0 0, 1 182.4023348903064, 137.69144888459311" fill="none" stroke="black" stroke-width="4"/>
  <path d="M 227.93611638637185,227.93611640854414 A 29.823431027405306, 29.823431027405306 0 0, 1 227.93611638637188, 270.1128171147731" fill="none" stroke="black" stroke-width="4"/>
  <path d="M 227.93611638637188,270.1128171147731 A 22.51304201419736, 22.51304201419736 0 0, 1 196.09786698619308, 270.1128171147732" fill="none" stroke="black" stroke-width="4"/>
  <path d="M 196.09786698619308,270.1128171147732 A 16.9945926163651, 16.9945926163651 0 0, 1 196.09786698619308, 246.0788337093742" fill="none" stroke="black" stroke-width="4"/>
  <path d="M 196.09786698619308,246.0788337093742 A 12.828838413488302, 12.828838413488302 0 0, 1 214.24058429048523, 246.0788337093742" fill="none" stroke="black" stroke-width="4"/>
  <path d="M 214.24058429048523,246.0788337093742 A 9.684203602557076, 9.684203602557076 0 0, 1 214.24058429048523, 259.77436580787435" fill="none" stroke="black" stroke-width="4"/>
  <path d="M 214.24058429048523,246.0788337093742 A 7.310389013808026, 7.310389013808026 0 0, 1 214.24058429048523, 235.74038240247538" fill="none" stroke="black" stroke-width="4"/>
  <path d="M 196.09786698619308,246.0788337093742 A 9.684203600709079, 9.684203600709079 0 0, 1 182.4023348903064, 246.0788337093742" fill="none" stroke="black" stroke-width="4"/>
  <path d="M 182.4023348903064,246.0788337093742 A 7.310389013808026, 7.310389013808026 0 0, 1 182.4023348903064, 235.74038240247538" fill="none" stroke="black" stroke-width="4"/>
  <path d="M 196.09786698619308,270.1128171147732 A 12.828838411040184, 12.828838411040184 0 0, 1 196.09786698619308, 288.25553441560317" fill="none" stroke="black" stroke-width="4"/>
  <path d="M 196.09786698619308,288.25553441560317 A 9.684203600709079, 9.684203600709079 0 0, 1 182.4023348903064, 288.25553441560317" fill="none" stroke="black" stroke-width="4"/>
  <path d="M 182.4023348903064,288.25553441560317 A 7.310389013807986, 7.310389013807986 0 0, 1 182.4023348903064, 277.9170831087044" fill="none" stroke="black" stroke-width="4"/>
  <path d="M 182.4023348903064,288.25553441560317 A 5.518449397232198, 5.518449397232198 0 0, 1 182.4023348903064, 296.0598004095344" fill="none" stroke="black" stroke-width="4"/>
  <path d="M 301.951066500828,227.93611640854414 A 39.50763462731946, 39.50763462731946 0 0, 1 357.8232993018195, 227.93611640854414" fill="none" stroke="black" stroke-width="4"/>
  <path d="M 357.8232993018195,227.93611640854414 A 29.823431027405306, 29.823431027405306 0 0, 1 357.8232993018195, 270.1128171147731" fill="none" stroke="black" stroke-width="4"/>
  <path d="M 357.8232993018195,270.1128171147731 A 22.513042014197342, 22.513042014197342 0 0, 1 325.9850499016407, 270.1128171147732" fill="none" stroke="black" stroke-width="4"/>
  <path d="M 325.9850499016407,270.1128171147732 A 16.9945926163651, 16.9945926163651 0 0, 1 325.9850499016407, 246.0788337093742" fill="none" stroke="black" stroke-width="4"/>
  <path d="M 325.9850499016407,246.0788337093742 A 12.828838413488302, 12.828838413488302 0 0, 1 344.12776720593286, 246.0788337093742" fill="none" stroke="black" stroke-width="4"/>
  <path d="M 344.12776720593286,246.0788337093742 A 9.684203602557076, 9.684203602557076 0 0, 1 344.12776720593286, 259.77436580787435" fill="none" stroke="black" stroke-width="4"/>
  <path d="M 344.12776720593286,246.0788337093742 A 7.310389013808026, 7.310389013808026 0 0, 1 344.12776720593286, 235.74038240247538" fill="none" stroke="black" stroke-width="4"/>
  <path d="M 325.9850499016407,246.0788337093742 A 9.684203600709079, 9.684203600709079 0 0, 1 312.28951780575403, 246.0788337093742" fill="none" stroke="black" stroke-width="4"/>
  <path d="M 312.28951780575403,246.0788337093742 A 7.310389013808026, 7.310389013808026 0 0, 1 312.28951780575403, 235.74038240247538" fill="none" stroke="black" stroke-width="4"/>
  <path d="M 325.9850499016407,270.1128171147732 A 12.828838411040184, 12.828838411040184 0 0, 1 325.9850499016407, 288.25553441560317" fill="none" stroke="black" stroke-width="4"/>
  <path d="M 325.9850499016407,288.25553441560317 A 9.684203600709079, 9.684203600709079 0 0, 1 312.28951780575403, 288.25553441560317" fill="none" stroke="black" stroke-width="4"/>
  <path d="M 312.28951780575403,288.25553441560317 A 7.310389013807986, 7.310389013807986 0 0, 1 312.28951780575403, 277.9170831087044" fill="none" stroke="black" stroke-width="4"/>
  <path d="M 312.28951780575403,288.25553441560317 A 5.518449397232198, 5.518449397232198 0 0, 1 312.28951780575403, 296.0598004095344" fill="none" stroke="black" stroke-width="4"/>
  <path d="M 357.8232993018195,270.1128171147731 A 16.99459261312208, 16.99459261312208 0 0, 1 381.8572827026321, 270.1128171147732" fill="none" stroke="black" stroke-width="4"/>
  <path d="M 381.8572827026321,270.1128171147732 A 12.828838411040184, 12.828838411040184 0 0, 1 381.8572827026321, 288.25553441560317" fill="none" stroke="black" stroke-width="4"/>
  <path d="M 381.8572827026321,288.25553441560317 A 9.68420360070904, 9.68420360070904 0 0, 1 368.1617506067455, 288.25553441560317" fill="none" stroke="black" stroke-width="4"/>
  <path d="M 368.1617506067455,288.25553441560317 A 7.310389013807986, 7.310389013807986 0 0, 1 368.1617506067455, 277.9170831087044" fill="none" stroke="black" stroke-width="4"/>
  <path d="M 368.1617506067455,288.25553441560317 A 5.518449397232198, 5.518449397232198 0 0, 1 368.1617506067455, 296.0598004095344" fill="none" stroke="black" stroke-width="4"/>
  <path d="M 381.8572827026321,288.25553441560317 A 7.310389012413, 7.310389012413 0 0, 1 392.1957340075581, 288.25553441560317" fill="none" stroke="black" stroke-width="4"/>
  <path d="M 392.1957340075581,288.25553441560317 A 5.518449397232198, 5.518449397232198 0 0, 1 392.19573400755814, 296.0598004095344" fill="none" stroke="black" stroke-width="4"/>
  <path d="M 301.951066500828,129.88718289066188 A 52.33647303730661, 52.33647303730661 0 0, 1 301.951066500828, 55.87223279032964" fill="none" stroke="black" stroke-width="4"/>
  <path d="M 301.951066500828,55.87223279032964 A 39.50763462731946, 39.50763462731946 0 0, 1 357.8232993018195, 55.87223279032965" fill="none" stroke="black" stroke-width="4"/>
  <path d="M 357.8232993018195,55.87223279032965 A 29.823431027405295, 29.823431027405295 0 0, 1 357.8232993018195, 98.04893349655862" fill="none" stroke="black" stroke-width="4"/>
  <path d="M 357.8232993018195,98.04893349655862 A 22.513042014197342, 22.513042014197342 0 0, 1 325.9850499016407, 98.04893349655862" fill="none" stroke="black" stroke-width="4"/>
  <path d="M 325.9850499016407,98.04893349655862 A 16.994592616365082, 16.994592616365082 0 0, 1 325.9850499016407, 74.01495009115968" fill="none" stroke="black" stroke-width="4"/>
  <path d="M 325.9850499016407,74.01495009115968 A 12.828838413488302, 12.828838413488302 0 0, 1 344.12776720593286, 74.01495009115968" fill="none" stroke="black" stroke-width="4"/>
  <path d="M 344.12776720593286,74.01495009115968 A 9.684203602557066, 9.684203602557066 0 0, 1 344.12776720593286, 87.7104821896598" fill="none" stroke="black" stroke-width="4"/>
  <path d="M 344.12776720593286,74.01495009115968 A 7.310389013808016, 7.310389013808016 0 0, 1 344.12776720593286, 63.67649878426086" fill="none" stroke="black" stroke-width="4"/>
  <path d="M 325.9850499016407,74.01495009115968 A 9.684203600709079, 9.684203600709079 0 0, 1 312.28951780575403, 74.01495009115968" fill="none" stroke="black" stroke-width="4"/>
  <path d="M 312.28951780575403,74.01495009115968 A 7.310389013808016, 7.310389013808016 0 0, 1 312.28951780575403, 63.67649878426086" fill="none" stroke="black" stroke-width="4"/>
  <path d="M 325.9850499016407,98.04893349655862 A 12.828838411040223, 12.828838411040223 0 0, 1 325.9850499016407, 116.19165079738866" fill="none" stroke="black" stroke-width="4"/>
  <path d="M 325.9850499016407,116.19165079738866 A 9.684203600709079, 9.684203600709079 0 0, 1 312.28951780575403, 116.19165079738866" fill="none" stroke="black" stroke-width="4"/>
  <path d="M 312.28951780575403,116.19165079738866 A 7.310389013808026, 7.310389013808026 0 0, 1 312.28951780575403, 105.85319949048983" fill="none" stroke="black" stroke-width="4"/>
  <path d="M 312.28951780575403,116.19165079738866 A 5.518449397232198, 5.518449397232198 0 0, 1 312.28951780575403, 123.99591679131987" fill="none" stroke="black" stroke-width="4"/>
  <path d="M 357.8232993018195,98.04893349655862 A 16.99459261312208, 16.99459261312208 0 0, 1 381.8572827026321, 98.04893349655862" fill="none" stroke="black" stroke-width="4"/>
  <path d="M 381.8572827026321,98.04893349655862 A 12.828838411040223, 12.828838411040223 0 0, 1 381.8572827026321, 116.19165079738866" fill="none" stroke="black" stroke-width="4"/>
  <path d="M 381.8572827026321,116.19165079738866 A 9.68420360070904, 9.68420360070904 0 0, 1 368.1617506067455, 116.19165079738866" fill="none" stroke="black" stroke-width="4"/>
  <path d="M 368.1617506067455,116.19165079738866 A 7.310389013808026, 7.310389013808026 0 0, 1 368.1617506067455, 105.85319949048983" fill="none" stroke="black" stroke-width="4"/>
  <path d="M 368.1617506067455,116.19165079738866 A 5.518449397232198, 5.518449397232198 0 0, 1 368.1617506067455, 123.99591679131987" fill="none" stroke="black" stroke-width="4"/>
  <path d="M 381.8572827026321,116.19165079738866 A 7.310389012413, 7.310389012413 0 0, 1 392.1957340075581, 116.19165079738866" fill="none" stroke="black" stroke-width="4"/>
  <path d="M 392.1957340075581,116.19165079738866 A 5.518449397232198, 5.518449397232198 0 0, 1 392.19573400755814, 123.99591679131987" fill="none" stroke="black" stroke-width="4"/>
  <path d="M 357.8232993018195,55.87223279032965 A 22.513042009901312, 22.513042009901312 0 0, 1 357.8232993018195, 24.033983396226382" fill="none" stroke="black" stroke-width="4"/>
  <path d="M 357.8232993018195,24.033983396226382 A 16.99459261312208, 16.99459261312208 0 0, 1 381.8572827026321, 24.033983396226382" fill="none" stroke="black" stroke-width="4"/>
  <path d="M 381.8572827026321,24.033983396226382 A 12.828838411040218, 12.828838411040218 0 0, 1 381.8572827026321, 42.17670069705642" fill="none" stroke="black" stroke-width="4"/>
  <path d="M 381.8572827026321,42.17670069705642 A 9.68420360070904, 9.68420360070904 0 0, 1 368.1617506067455, 42.17670069705642" fill="none" stroke="black" stroke-width="4"/>
  <path d="M 368.1617506067455,42.17670069705642 A 7.310389013808016, 7.310389013808016 0 0, 1 368.1617506067455, 31.8382493901576" fill="none" stroke="black" stroke-width="4"/>
  <path d="M 368.1617506067455,42.17670069705642 A 5.518449397232203, 5.518449397232203 0 0, 1 368.1617506067455, 49.980966690987636" fill="none" stroke="black" stroke-width="4"/>
  <path d="M 381.8572827026321,42.17670069705642 A 7.310389012413, 7.310389012413 0 0, 1 392.1957340075581, 42.17670069705642" fill="none" stroke="black" stroke-width="4"/>
  <path d="M 392.1957340075581,42.17670069705642 A 5.518449397232203, 5.518449397232203 0 0, 1 392.19573400755814, 49.980966690987636" fill="none" stroke="black" stroke-width="4"/>
  <path d="M 381.8572827026321,24.033983396226382 A 9.684203598861094, 9.684203598861094 0 0, 1 381.8572827026321, 10.338451302953153" fill="none" stroke="black" stroke-width="4"/>
  <path d="M 381.8572827026321,10.338451302953153 A 7.310389012413, 7.310389012413 0 0, 1 392.1957340075581, 10.338451302953153" fill="none" stroke="black" stroke-width="4"/>
  <path d="M 392.1957340075581,10.338451302953153 A 5.518449397232203, 5.518449397232203 0 0, 1 392.19573400755814, 18.14271729688437" fill="none" stroke="black" stroke-width="4"/>
  <path d="M 392.1957340075581,10.338451302953153 A 4.165754201628892, 4.165754201628892 0 0, 1 392.19573400755814, 4.447185203611139" fill="none" stroke="black" stroke-width="4"/>
  <path d="M 172.06388358538038,129.88718289066188 A 69.33106564903369, 69.33106564903369 0 0, 1 74.01495008620833, 129.88718289066188" fill="none" stroke="black" stroke-width="4"/>
  <path d="M 74.01495008620833,129.88718289066188 A 52.33647303730661, 52.33647303730661 0 0, 1 74.01495008620833, 55.87223279032964" fill="none" stroke="black" stroke-width="4"/>
  <path d="M 74.01495008620833,55.87223279032964 A 39.50763462731946, 39.50763462731946 0 0, 1 129.8871828871998, 55.87223279032965" fill="none" stroke="black" stroke-width="4"/>
  <path d="M 129.8871828871998,55.87223279032965 A 29.823431027405295, 29.823431027405295 0 0, 1 129.8871828871998, 98.04893349655862" fill="none" stroke="black" stroke-width="4"/>
  <path d="M 129.8871828871998,98.04893349655862 A 22.51304201419736, 22.51304201419736 0 0, 1 98.048933487021, 98.04893349655862" fill="none" stroke="black" stroke-width="4"/>
  <path d="M 98.048933487021,98.04893349655862 A 16.994592616365082, 16.994592616365082 0 0, 1 98.048933487021, 74.01495009115968" fill="none" stroke="black" stroke-width="4"/>
  <path d="M 98.048933487021,74.01495009115968 A 12.828838413488281, 12.828838413488281 0 0, 1 116.19165079131312, 74.01495009115968" fill="none" stroke="black" stroke-width="4"/>
  <path d="M 116.19165079131312,74.01495009115968 A 9.684203602557066, 9.684203602557066 0 0, 1 116.19165079131314, 87.7104821896598" fill="none" stroke="black" stroke-width="4"/>
  <path d="M 116.19165079131312,74.01495009115968 A 7.310389013808016, 7.310389013808016 0 0, 1 116.19165079131314, 63.67649878426086" fill="none" stroke="black" stroke-width="4"/>
  <path d="M 98.048933487021,74.01495009115968 A 9.684203600709079, 9.684203600709079 0 0, 1 84.35340139113433, 74.01495009115968" fill="none" stroke="black" stroke-width="4"/>
  <path d="M 84.35340139113433,74.01495009115968 A 7.310389013808016, 7.310389013808016 0 0, 1 84.35340139113433, 63.67649878426086" fill="none" stroke="black" stroke-width="4"/>
  <path d="M 98.048933487021,98.04893349655862 A 12.828838411040223, 12.828838411040223 0 0, 1 98.048933487021, 116.19165079738866" fill="none" stroke="black" stroke-width="4"/>
  <path d="M 98.048933487021,116.19165079738866 A 9.684203600709079, 9.684203600709079 0 0, 1 84.35340139113433, 116.19165079738866" fill="none" stroke="black" stroke-width="4"/>
  <path d="M 84.35340139113433,116.19165079738866 A 7.310389013808026, 7.310389013808026 0 0, 1 84.35340139113433, 105.85319949048983" fill="none" stroke="black" stroke-width="4"/>
  <path d="M 84.35340139113433,116.19165079738866 A 5.518449397232198, 5.518449397232198 0 0, 1 84.35340139113433, 123.99591679131987" fill="none" stroke="black" stroke-width="4"/>
  <path d="M 129.8871828871998,98.04893349655862 A 16.99459261312208, 16.99459261312208 0 0, 1 153.92116628801244, 98.04893349655862" fill="none" stroke="black" stroke-width="4"/>
  <path d="M 153.92116628801244,98.04893349655862 A 12.828838411040223, 12.828838411040223 0 0, 1 153.92116628801244, 116.19165079738866" fill="none" stroke="black" stroke-width="4"/>
  <path d="M 153.92116628801244,116.19165079738866 A 9.684203600709079, 9.684203600709079 0 0, 1 140.22563419212577, 116.19165079738866" fill="none" stroke="black" stroke-width="4"/>
  <path d="M 140.22563419212577,116.19165079738866 A 7.310389013808026, 7.310389013808026 0 0, 1 140.22563419212577, 105.85319949048983" fill="none" stroke="black" stroke-width="4"/>
  <path d="M 140.22563419212577,116.19165079738866 A 5.518449397232198, 5.518449397232198 0 0, 1 140.22563419212577, 123.99591679131987" fill="none" stroke="black" stroke-width="4"/>
  <path d="M 153.92116628801244,116.19165079738866 A 7.31038901241302, 7.31038901241302 0 0, 1 164.25961759293844, 116.19165079738866" fill="none" stroke="black" stroke-width="4"/>
  <path d="M 164.25961759293844,116.19165079738866 A 5.518449397232198, 5.518449397232198 0 0, 1 164.25961759293844, 123.99591679131987" fill="none" stroke="black" stroke-width="4"/>
  <path d="M 129.8871828871998,55.87223279032965 A 22.513042009901312, 22.513042009901312 0 0, 1 129.8871828871998, 24.033983396226382" fill="none" stroke="black" stroke-width="4"/>
  <path d="M 129.8871828871998,24.033983396226382 A 16.99459261312208, 16.99459261312208 0 0, 1 153.92116628801244, 24.033983396226382" fill="none" stroke="black" stroke-width="4"/>
  <path d="M 153.92116628801244,24.033983396226382 A 12.828838411040218, 12.828838411040218 0 0, 1 153.92116628801244, 42.17670069705642" fill="none" stroke="black" stroke-width="4"/>
  <path d="M 153.92116628801244,42.17670069705642 A 9.684203600709079, 9.684203600709079 0 0, 1 140.22563419212577, 42.17670069705642" fill="none" stroke="black" stroke-width="4"/>
  <path d="M 140.22563419212577,42.17670069705642 A 7.310389013808016, 7.310389013808016 0 0, 1 140.22563419212577, 31.8382493901576" fill="none" stroke="black" stroke-width="4"/>
  <path d="M 140.22563419212577,42.17670069705642 A 5.518449397232203, 5.518449397232203 0 0, 1 140.22563419212577, 49.980966690987636" fill="none" stroke="black" stroke-width="4"/>
  <path d="M 153.92116628801244,42.17670069705642 A 7.31038901241302, 7.31038901241302 0 0, 1 164.25961759293844, 42.17670069705642" fill="none" stroke="black" stroke-width="4"/>
  <path d="M 164.25961759293844,42.17670069705642 A 5.518449397232203, 5.518449397232203 0 0, 1 164.25961759293844, 49.980966690987636" fill="none" stroke="black" stroke-width="4"/>
  <path d="M 153.92116628801244,24.033983396226382 A 9.684203598861094, 9.684203598861094 0 0, 1 153.92116628801244, 10.338451302953153" fill="none" stroke="black" stroke-width="4"/>
  <path d="M 153.92116628801244,10.338451302953153 A 7.31038901241302, 7.31038901241302 0 0, 1 164.25961759293844, 10.338451302953153" fill="none" stroke="black" stroke-width="4"/>
  <path d="M 164.25961759293844,10.338451302953153 A 5.518449397232203, 5.518449397232203 0 0, 1 164.25961759293844, 18.14271729688437" fill="none" stroke="black" stroke-width="4"/>
  <path d="M 164.25961759293844,10.338451302953153 A 4.165754201628892, 4.165754201628892 0 0, 1 164.25961759293844, 4.447185203611139" fill="none" stroke="black" stroke-width="4"/>
  <path d="M 74.01495008620833,55.87223279032964 A 29.823431021714246, 29.823431021714246 0 0, 1 31.838249388027723, 55.87223279032965" fill="none" stroke="black" stroke-width="4"/>
  <path d="M 31.838249388027723,55.87223279032965 A 22.513042009901312, 22.513042009901312 0 0, 1 31.838249388027727, 24.033983396226382" fill="none" stroke="black" stroke-width="4"/>
  <path d="M 31.838249388027727,24.033983396226382 A 16.994592613122094, 16.994592613122094 0 0, 1 55.87223278884039, 24.033983396226382" fill="none" stroke="black" stroke-width="4"/>
  <path d="M 55.87223278884039,24.033983396226382 A 12.828838411040218, 12.828838411040218 0 0, 1 55.87223278884039, 42.17670069705642" fill="none" stroke="black" stroke-width="4"/>
  <path d="M 55.87223278884039,42.17670069705642 A 9.684203600709079, 9.684203600709079 0 0, 1 42.176700692953716, 42.17670069705642" fill="none" stroke="black" stroke-width="4"/>
  <path d="M 42.176700692953716,42.17670069705642 A 7.310389013808016, 7.310389013808016 0 0, 1 42.176700692953716, 31.8382493901576" fill="none" stroke="black" stroke-width="4"/>
  <path d="M 42.176700692953716,42.17670069705642 A 5.518449397232203, 5.518449397232203 0 0, 1 42.176700692953716, 49.980966690987636" fill="none" stroke="black" stroke-width="4"/>
  <path d="M 55.87223278884039,42.17670069705642 A 7.31038901241301, 7.31038901241301 0 0, 1 66.21068409376637, 42.17670069705642" fill="none" stroke="black" stroke-width="4"/>
  <path d="M 66.21068409376637,42.17670069705642 A 5.518449397232203, 5.518449397232203 0 0, 1 66.21068409376637, 49.980966690987636" fill="none" stroke="black" stroke-width="4"/>
  <path d="M 55.87223278884039,24.033983396226382 A 9.684203598861094, 9.684203598861094 0 0, 1 55.87223278884039, 10.338451302953153" fill="none" stroke="black" stroke-width="4"/>
  <path d="M 55.87223278884039,10.338451302953153 A 7.31038901241301, 7.31038901241301 0 0, 1 66.21068409376637, 10.338451302953153" fill="none" stroke="black" stroke-width="4"/>
  <path d="M 66.21068409376637,10.338451302953153 A 5.518449397232203, 5.518449397232203 0 0, 1 66.21068409376637, 18.14271729688437" fill="none" stroke="black" stroke-width="4"/>
  <path d="M 66.21068409376637,10.338451302953153 A 4.165754201628892, 4.165754201628892 0 0, 1 66.21068409376637, 4.447185203611139" fill="none" stroke="black" stroke-width="4"/>
  <path d="M 31.838249388027727,24.033983396226382 A 12.828838408592153, 12.828838408592153 0 0, 1 13.695532090659778, 24.033983396226382" fill="none" stroke="black" stroke-width="4"/>
  <path d="M 13.695532090659778,24.033983396226382 A 9.684203598861094, 9.684203598861094 0 0, 1 13.695532090659778, 10.338451302953153" fill="none" stroke="black" stroke-width="4"/>
  <path d="M 13.695532090659778,10.338451302953153 A 7.310389012413013, 7.310389012413013 0 0, 1 24.033983395585764, 10.338451302953153" fill="none" stroke="black" stroke-width="4"/>
  <path d="M 24.033983395585764,10.338451302953153 A 5.518449397232203, 5.518449397232203 0 0, 1 24.033983395585764, 18.14271729688437" fill="none" stroke="black" stroke-width="4"/>
  <path d="M 24.033983395585764,10.338451302953153 A 4.165754201628892, 4.165754201628892 0 0, 1 24.033983395585764, 4.447185203611139" fill="none" stroke="black" stroke-width="4"/>
  <path d="M 13.695532090659778,10.338451302953153 A 5.518449396179142, 5.518449396179142 0 0, 1 5.891266098217813, 10.338451302953153" fill="none" stroke="black" stroke-width="4"/>
  <path d="M 5.891266098217813,10.338451302953153 A 4.165754201628892, 4.165754201628892 0 0, 1 5.891266098217812, 4.447185203611139" fill="none" stroke="black" stroke-width="4"/>
  <path d="M 172.06388358538038,301.95106650887635 A 91.844107657087, 91.844107657087 0 0, 1 172.06388358538038, 431.8382493995382" fill="none" stroke="black" stroke-width="4"/>
  <path d="M 172.06388358538038,431.8382493995382 A 69.33106564903369, 69.33106564903369 0 0, 1 74.01495008620833, 431.8382493995382" fill="none" stroke="black" stroke-width="4"/>
  <path d="M 74.01495008620833,431.8382493995382 A 52.336473037306554, 52.336473037306554 0 0, 1 74.01495008620833, 357.82329929920604" fill="none" stroke="black" stroke-width="4"/>
  <path d="M 74.01495008620833,357.82329929920604 A 39.50763462731946, 39.50763462731946 0 0, 1 129.8871828871998, 357.82329929920604" fill="none" stroke="black" stroke-width="4"/>
  <path d="M 129.8871828871998,357.82329929920604 A 29.823431027405306, 29.823431027405306 0 0, 1 129.8871828871998, 400.000000005435" fill="none" stroke="black" stroke-width="4"/>
  <path d="M 129.8871828871998,400.000000005435 A 22.51304201419736, 22.51304201419736 0 0, 1 98.048933487021, 400.000000005435" fill="none" stroke="black" stroke-width="4"/>
  <path d="M 98.048933487021,400.000000005435 A 16.99459261636504, 16.99459261636504 0 0, 1 98.048933487021, 375.96601660003614" fill="none" stroke="black" stroke-width="4"/>
  <path d="M 98.048933487021,375.96601660003614 A 12.828838413488281, 12.828838413488281 0 0, 1 116.19165079131312, 375.96601660003614" fill="none" stroke="black" stroke-width="4"/>
  <path d="M 116.19165079131312,375.96601660003614 A 9.684203602557055, 9.684203602557055 0 0, 1 116.19165079131314, 389.66154869853625" fill="none" stroke="black" stroke-width="4"/>
  <path d="M 116.19165079131312,375.96601660003614 A 7.310389013808026, 7.310389013808026 0 0, 1 116.19165079131314, 365.6275652931373" fill="none" stroke="black" stroke-width="4"/>
  <path d="M 98.048933487021,375.96601660003614 A 9.684203600709079, 9.684203600709079 0 0, 1 84.35340139113433, 375.96601660003614" fill="none" stroke="black" stroke-width="4"/>
  <path d="M 84.35340139113433,375.96601660003614 A 7.310389013808026, 7.310389013808026 0 0, 1 84.35340139113433, 365.6275652931373" fill="none" stroke="black" stroke-width="4"/>
  <path d="M 98.048933487021,400.000000005435 A 12.828838411040184, 12.828838411040184 0 0, 1 98.048933487021, 418.142717306265" fill="none" stroke="black" stroke-width="4"/>
  <path d="M 98.048933487021,418.142717306265 A 9.684203600709079, 9.684203600709079 0 0, 1 84.35340139113433, 418.142717306265" fill="none" stroke="black" stroke-width="4"/>
  <path d="M 84.35340139113433,418.142717306265 A 7.310389013807986, 7.310389013807986 0 0, 1 84.35340139113433, 407.80426599936624" fill="none" stroke="black" stroke-width="4"/>
  <path d="M 84.35340139113433,418.142717306265 A 5.518449397232198, 5.518449397232198 0 0, 1 84.35340139113433, 425.9469833001962" fill="none" stroke="black" stroke-width="4"/>
  <path d="M 129.8871828871998,400.000000005435 A 16.99459261312208, 16.99459261312208 0 0, 1 153.92116628801244, 400.000000005435" fill="none" stroke="black" stroke-width="4"/>
  <path d="M 153.92116628801244,400.000000005435 A 12.828838411040184, 12.828838411040184 0 0, 1 153.92116628801244, 418.142717306265" fill="none" stroke="black" stroke-width="4"/>
  <path d="M 153.92116628801244,418.142717306265 A 9.684203600709079, 9.684203600709079 0 0, 1 140.22563419212577, 418.142717306265" fill="none" stroke="black" stroke-width="4"/>
  <path d="M 140.22563419212577,418.142717306265 A 7.310389013807986, 7.310389013807986 0 0, 1 140.22563419212577, 407.80426599936624" fill="none" stroke="black" stroke-width="4"/>
  <path d="M 140.22563419212577,418.142717306265 A 5.518449397232198, 5.518449397232198 0 0, 1 140.22563419212577, 425.9469833001962" fill="none" stroke="black" stroke-width="4"/>
  <path d="M 153.92116628801244,418.142717306265 A 7.31038901241302, 7.31038901241302 0 0, 1 164.25961759293844, 418.142717306265" fill="none" stroke="black" stroke-width="4"/>
  <path d="M 164.25961759293844,418.142717306265 A 5.518449397232198, 5.518449397232198 0 0, 1 164.25961759293844, 425.9469833001962" fill="none" stroke="black" stroke-width="4"/>
  <path d="M 129.8871828871998,357.82329929920604 A 22.513042009901326, 22.513042009901326 0 0, 1 129.8871828871998, 325.98504990510276" fill="none" stroke="black" stroke-width="4"/>
  <path d="M 129.8871828871998,325.98504990510276 A 16.99459261312208, 16.99459261312208 0 0, 1 153.92116628801244, 325.98504990510276" fill="none" stroke="black" stroke-width="4"/>
  <path d="M 153.92116628801244,325.98504990510276 A 12.828838411040264, 12.828838411040264 0 0, 1 153.92116628801244, 344.12776720593286" fill="none" stroke="black" stroke-width="4"/>
  <path d="M 153.92116628801244,344.12776720593286 A 9.684203600709079, 9.684203600709079 0 0, 1 140.22563419212577, 344.12776720593286" fill="none" stroke="black" stroke-width="4"/>
  <path d="M 140.22563419212577,344.12776720593286 A 7.310389013808026, 7.310389013808026 0 0, 1 140.22563419212577, 333.789315899034" fill="none" stroke="black" stroke-width="4"/>
  <path d="M 140.22563419212577,344.12776720593286 A 5.518449397232198, 5.518449397232198 0 0, 1 140.22563419212577, 351.93203319986407" fill="none" stroke="black" stroke-width="4"/>
  <path d="M 153.92116628801244,344.12776720593286 A 7.31038901241302, 7.31038901241302 0 0, 1 164.25961759293844, 344.12776720593286" fill="none" stroke="black" stroke-width="4"/>
  <path d="M 164.25961759293844,344.12776720593286 A 5.518449397232198, 5.518449397232198 0 0, 1 164.25961759293844, 351.93203319986407" fill="none" stroke="black" stroke-width="4"/>
  <path d="M 153.92116628801244,325.98504990510276 A 9.684203598861064, 9.684203598861064 0 0, 1 153.92116628801244, 312.28951781182957" fill="none" stroke="black" stroke-width="4"/>
  <path d="M 153.92116628801244,312.28951781182957 A 7.31038901241302, 7.31038901241302 0 0, 1 164.25961759293844, 312.28951781182957" fill="none" stroke="black" stroke-width="4"/>
  <path d="M 164.25961759293844,312.28951781182957 A 5.518449397232198, 5.518449397232198 0 0, 1 164.25961759293844, 320.0937838057608" fill="none" stroke="black" stroke-width="4"/>
  <path d="M 164.25961759293844,312.28951781182957 A 4.165754201628905, 4.165754201628905 0 0, 1 164.25961759293844, 306.39825171248754" fill="none" stroke="black" stroke-width="4"/>
  <path d="M 74.01495008620833,357.82329929920604 A 29.823431021714246, 29.823431021714246 0 0, 1 31.838249388027723, 357.82329929920604" fill="none" stroke="black" stroke-width="4"/>
  <path d="M 31.838249388027723,357.82329929920604 A 22.513042009901326, 22.513042009901326 0 0, 1 31.838249388027727, 325.98504990510276" fill="none" stroke="black" stroke-width="4"/>
  <path d="M 31.838249388027727,325.98504990510276 A 16.994592613122094, 16.994592613122094 0 0, 1 55.87223278884039, 325.98504990510276" fill="none" stroke="black" stroke-width="4"/>
  <path d="M 55.87223278884039,325.98504990510276 A 12.828838411040264, 12.828838411040264 0 0, 1 55.87223278884039, 344.12776720593286" fill="none" stroke="black" stroke-width="4"/>
  <path d="M 55.87223278884039,344.12776720593286 A 9.684203600709079, 9.684203600709079 0 0, 1 42.176700692953716, 344.12776720593286" fill="none" stroke="black" stroke-width="4"/>
  <path d="M 42.176700692953716,344.12776720593286 A 7.310389013808026, 7.310389013808026 0 0, 1 42.176700692953716, 333.789315899034" fill="none" stroke="black" stroke-width="4"/>
  <path d="M 42.176700692953716,344.12776720593286 A 5.518449397232198, 5.518449397232198 0 0, 1 42.176700692953716, 351.93203319986407" fill="none" stroke="black" stroke-width="4"/>
  <path d="M 55.87223278884039,344.12776720593286 A 7.31038901241301, 7.31038901241301 0 0, 1 66.21068409376637, 344.12776720593286" fill="none" stroke="black" stroke-width="4"/>
  <path d="M 66.21068409376637,344.12776720593286 A 5.518449397232198, 5.518449397232198 0 0, 1 66.21068409376637, 351.93203319986407" fill="none" stroke="black" stroke-width="4"/>
  <path d="M 55.87223278884039,325.98504990510276 A 9.684203598861064, 9.684203598861064 0 0, 1 55.87223278884039, 312.28951781182957" fill="none" stroke="black" stroke-width="4"/>
  <path d="M 55.87223278884039,312.28951781182957 A 7.31038901241301, 7.31038901241301 0 0, 1 66.21068409376637, 312.28951781182957" fill="none" stroke="black" stroke-width="4"/>
  <path d="M 66.21068409376637,312.28951781182957 A 5.518449397232198, 5.518449397232198 0 0, 1 66.21068409376637, 320.0937838057608" fill="none" stroke="black" stroke-width="4"/>
  <path d="M 66.21068409376637,312.28951781182957 A 4.165754201628905, 4.165754201628905 0 0, 1 66.21068409376637, 306.39825171248754" fill="none" stroke="black" stroke-width="4"/>
  <path d="M 31.838249388027727,325.98504990510276 A 12.828838408592153, 12.828838408592153 0 0, 1 13.695532090659778, 325.98504990510276" fill="none" stroke="black" stroke-width="4"/>
  <path d="M 13.695532090659778,325.98504990510276 A 9.684203598861064, 9.684203598861064 0 0, 1 13.695532090659778, 312.28951781182957" fill="none" stroke="black" stroke-width="4"/>
  <path d="M 13.695532090659778,312.28951781182957 A 7.310389012413013, 7.310389012413013 0 0, 1 24.033983395585764, 312.28951781182957" fill="none" stroke="black" stroke-width="4"/>
  <path d="M 24.033983395585764,312.28951781182957 A 5.518449397232198, 5.518449397232198 0 0, 1 24.033983395585764, 320.0937838057608" fill="none" stroke="black" stroke-width="4"/>
  <path d="M 24.033983395585764,312.28951781182957 A 4.165754201628905, 4.165754201628905 0 0, 1 24.033983395585764, 306.39825171248754" fill="none" stroke="black" stroke-width="4"/>
  <path d="M 13.695532090659778,312.28951781182957 A 5.518449396179142, 5.518449396179142 0 0, 1 5.891266098217813, 312.28951781182957" fill="none" stroke="black" stroke-width="4"/>
  <path d="M 5.891266098217813,312.28951781182957 A 4.165754201628905, 4.165754201628905 0 0, 1 5.891266098217812, 306.39825171248754" fill="none" stroke="black" stroke-width="4"/>
  <path d="M 74.01495008620833,431.8382493995382 A 39.50763461978045, 39.50763461978045 0 0, 1 74.01495008620833, 487.7104821898679" fill="none" stroke="black" stroke-width="4"/>
  <path d="M 74.01495008620833,487.7104821898679 A 29.823431021714246, 29.823431021714246 0 0, 1 31.838249388027723, 487.7104821898679" fill="none" stroke="black" stroke-width="4"/>
  <path d="M 31.838249388027723,487.7104821898679 A 22.513042009901326, 22.513042009901326 0 0, 1 31.838249388027727, 455.8722327957646" fill="none" stroke="black" stroke-width="4"/>
  <path d="M 31.838249388027727,455.8722327957646 A 16.994592613122094, 16.994592613122094 0 0, 1 55.87223278884039, 455.8722327957646" fill="none" stroke="black" stroke-width="4"/>
  <path d="M 55.87223278884039,455.8722327957646 A 12.828838411040264, 12.828838411040264 0 0, 1 55.87223278884039, 474.0149500965947" fill="none" stroke="black" stroke-width="4"/>
  <path d="M 55.87223278884039,474.0149500965947 A 9.684203600709079, 9.684203600709079 0 0, 1 42.176700692953716, 474.0149500965947" fill="none" stroke="black" stroke-width="4"/>
  <path d="M 42.176700692953716,474.0149500965947 A 7.310389013808026, 7.310389013808026 0 0, 1 42.176700692953716, 463.67649878969587" fill="none" stroke="black" stroke-width="4"/>
  <path d="M 42.176700692953716,474.0149500965947 A 5.518449397232198, 5.518449397232198 0 0, 1 42.176700692953716, 481.8192160905259" fill="none" stroke="black" stroke-width="4"/>
  <path d="M 55.87223278884039,474.0149500965947 A 7.31038901241301, 7.31038901241301 0 0, 1 66.21068409376637, 474.0149500965947" fill="none" stroke="black" stroke-width="4"/>
  <path d="M 66.21068409376637,474.0149500965947 A 5.518449397232198, 5.518449397232198 0 0, 1 66.21068409376637, 481.8192160905259" fill="none" stroke="black" stroke-width="4"/>
  <path d="M 55.87223278884039,455.8722327957646 A 9.684203598861064, 9.684203598861064 0 0, 1 55.87223278884039, 442.1767007024914" fill="none" stroke="black" stroke-width="4"/>
  <path d="M 55.87223278884039,442.1767007024914 A 7.31038901241301, 7.31038901241301 0 0, 1 66.21068409376637, 442.1767007024914" fill="none" stroke="black" stroke-width="4"/>
  <path d="M 66.21068409376637,442.1767007024914 A 5.518449397232198, 5.518449397232198 0 0, 1 66.21068409376637, 449.9809666964226" fill="none" stroke="black" stroke-width="4"/>
  <path d="M 66.21068409376637,442.1767007024914 A 4.165754201628905, 4.165754201628905 0 0, 1 66.21068409376637, 436.2854346031494" fill="none" stroke="black" stroke-width="4"/>
  <path d="M 31.838249388027727,455.8722327957646 A 12.828838408592153, 12.828838408592153 0 0, 1 13.695532090659778, 455.8722327957646" fill="none" stroke="black" stroke-width="4"/>
  <path d="M 13.695532090659778,455.8722327957646 A 9.684203598861064, 9.684203598861064 0 0, 1 13.695532090659778, 442.1767007024914" fill="none" stroke="black" stroke-width="4"/>
  <path d="M 13.695532090659778,442.1767007024914 A 7.310389012413013, 7.310389012413013 0 0, 1 24.033983395585764, 442.1767007024914" fill="none" stroke="black" stroke-width="4"/>
  <path d="M 24.033983395585764,442.1767007024914 A 5.518449397232198, 5.518449397232198 0 0, 1 24.033983395585764, 449.9809666964226" fill="none" stroke="black" stroke-width="4"/>
  <path d="M 24.033983395585764,442.1767007024914 A 4.165754201628905, 4.165754201628905 0 0, 1 24.033983395585764, 436.2854346031494" fill="none" stroke="black" stroke-width="4"/>
  <path d="M 13.695532090659778,442.1767007024914 A 5.518449396179142, 5.518449396179142 0 0, 1 5.891266098217813, 442.1767007024914" fill="none" stroke="black" stroke-width="4"/>
  <path d="M 5.891266098217813,442.1767007024914 A 4.165754201628905, 4.165754201628905 0 0, 1 5.891266098217812, 436.2854346031494" fill="none" stroke="black" stroke-width="4"/>
  <path d="M 31.838249388027723,487.7104821898679 A 16.994592609879117, 16.994592609879117 0 0, 1 31.838249388027727, 511.7444655860943" fill="none" stroke="black" stroke-width="4"/>
  <path d="M 31.838249388027727,511.7444655860943 A 12.828838408592153, 12.828838408592153 0 0, 1 13.695532090659778, 511.7444655860943" fill="none" stroke="black" stroke-width="4"/>
  <path d="M 13.695532090659778,511.7444655860943 A 9.684203598861064, 9.684203598861064 0 0, 1 13.695532090659778, 498.0489334928211" fill="none" stroke="black" stroke-width="4"/>
  <path d="M 13.695532090659778,498.0489334928211 A 7.310389012413013, 7.310389012413013 0 0, 1 24.033983395585764, 498.0489334928211" fill="none" stroke="black" stroke-width="4"/>
  <path d="M 24.033983395585764,498.0489334928211 A 5.518449397232198, 5.518449397232198 0 0, 1 24.033983395585764, 505.8531994867523" fill="none" stroke="black" stroke-width="4"/>
  <path d="M 24.033983395585764,498.0489334928211 A 4.165754201628905, 4.165754201628905 0 0, 1 24.033983395585764, 492.1576673934791" fill="none" stroke="black" stroke-width="4"/>
  <path d="M 13.695532090659778,498.0489334928211 A 5.518449396179142, 5.518449396179142 0 0, 1 5.891266098217813, 498.0489334928211" fill="none" stroke="black" stroke-width="4"/>
  <path d="M 5.891266098217813,498.0489334928211 A 4.165754201628905, 4.165754201628905 0 0, 1 5.891266098217812, 492.1576673934791" fill="none" stroke="black" stroke-width="4"/>
  <path d="M 13.695532090659778,511.7444655860943 A 7.310389011017974, 7.310389011017974 0 0, 1 13.695532090659778, 522.0829168890474" fill="none" stroke="black" stroke-width="4"/>
  <path d="M 13.695532090659778,522.0829168890474 A 5.518449396179142, 5.518449396179142 0 0, 1 5.891266098217813, 522.0829168890474" fill="none" stroke="black" stroke-width="4"/>
  <path d="M 5.891266098217813,522.0829168890474 A 4.165754201628905, 4.165754201628905 0 0, 1 5.891266098217813, 516.1916507897054" fill="none" stroke="black" stroke-width="4"/>
  <path d="M 5.891266098217813,522.0829168890474 A 3.144634809389149, 3.144634809389149 0 0, 1 5.891266098217812, 526.5301020926586" fill="none" stroke="black" stroke-width="4"/>
</g>

<use xmlns:xlink="http://www.w3.org/1999/xlink" xlink:href="#harriss" transform="translate(1500,0), scale(-1,1)"/>
<use xmlns:xlink="http://www.w3.org/1999/xlink" xlink:href="#harriss" transform="translate(0,1600), scale(1,-1)"/>
<use xmlns:xlink="http://www.w3.org/1999/xlink" xlink:href="#harriss" transform="translate(1500,1600), scale(-1,-1)"/>

</svg>
